<svg width="30" height="24" viewBox="0 0 30 24" fill="none" xmlns="http://www.w3.org/2000/svg">
<g filter="url(#filter0_i_25_26)">
<path d="M26.5125 5.98123C26.5313 6.24372 26.5313 6.50626 26.5313 6.76875C26.5313 14.775 20.4375 24 9.30001 24C5.86874 24 2.68126 23.0062 0 21.2813C0.487518 21.3375 0.956221 21.3563 1.4625 21.3563C4.2937 21.3563 6.89999 20.4 8.98125 18.7688C6.31874 18.7125 4.08749 16.9688 3.31872 14.5687C3.69375 14.625 4.06873 14.6625 4.46252 14.6625C5.00625 14.6625 5.55004 14.5874 6.05626 14.4563C3.28127 13.8937 1.19995 11.4562 1.19995 8.51249V8.43752C2.00617 8.88752 2.94375 9.16877 3.93743 9.20622C2.30617 8.1187 1.23747 6.26247 1.23747 4.16246C1.23747 3.03748 1.53741 2.00623 2.06244 1.10622C5.04371 4.78122 9.52498 7.18118 14.5499 7.44372C14.4562 6.99372 14.3999 6.52502 14.3999 6.05626C14.3999 2.71872 17.0999 0 20.4562 0C22.1999 0 23.7749 0.731248 24.8812 1.9125C26.2499 1.65001 27.5624 1.14374 28.7249 0.450003C28.2749 1.85628 27.3187 3.03754 26.0624 3.78748C27.2812 3.6563 28.4625 3.31872 29.5499 2.85002C28.7251 4.04997 27.6938 5.11868 26.5125 5.98123Z" fill="#F7ECEC"/>
</g>
<defs>
<filter id="filter0_i_25_26" x="0" y="-4" width="29.5499" height="28" filterUnits="userSpaceOnUse" color-interpolation-filters="sRGB">
<feFlood flood-opacity="0" result="BackgroundImageFix"/>
<feBlend mode="normal" in="SourceGraphic" in2="BackgroundImageFix" result="shape"/>
<feColorMatrix in="SourceAlpha" type="matrix" values="0 0 0 0 0 0 0 0 0 0 0 0 0 0 0 0 0 0 127 0" result="hardAlpha"/>
<feOffset dy="-4"/>
<feGaussianBlur stdDeviation="4"/>
<feComposite in2="hardAlpha" operator="arithmetic" k2="-1" k3="1"/>
<feColorMatrix type="matrix" values="0 0 0 0 0.00392157 0 0 0 0 0 0 0 0 0 0 0 0 0 0.56 0"/>
<feBlend mode="normal" in2="shape" result="effect1_innerShadow_25_26"/>
</filter>
</defs>
</svg>
