<svg width="61" height="64" viewBox="0 0 61 64" fill="none" xmlns="http://www.w3.org/2000/svg">
<g id="logo-loading">
<g id="Vector 2" filter="url(#filter0_d_73_2)">
<path d="M11.4333 24.8154C9.87537 25.3266 8.90886 25.4906 6.93601 25.4735C5.94881 26.2413 5.51005 27.5576 5.51005 28.6545C5.61974 31.6161 6.24281 32.5026 7.70384 32.9324C11.4333 34.0292 12.4826 33.0214 14.5046 29.9707C15.104 30.0745 15.4407 30.0577 16.0402 29.9707L15.1627 27.1188C13.4977 26.4241 12.7198 25.8815 11.4333 24.8154Z" fill="#FAEFEF"/>
<path d="M12.2011 22.0731H14.0658C13.2059 19.3213 12.0277 17.5416 10.0073 14.3949C9.1298 12.0914 6.93601 12.2011 4.52285 14.8336C3.72307 16.4458 3.18128 17.3776 2 19.1115C2.21938 20.5375 3.31627 20.9762 4.74223 21.5247C6.93601 25.1444 8.91042 25.3978 12.2011 22.0731Z" fill="#FAEFEF"/>
<path d="M47.7404 7.37477C46.6797 6.78925 46.1025 6.53836 45.1079 6.27788C45.6844 7.02784 46.2241 7.53932 47.7404 8.69104C48.9234 10.2149 49.728 10.8577 51.2505 11.872C52.582 13.4289 53.5019 14.0174 55.4186 14.6143L57.6124 9.67825C55.8117 7.512 54.7456 6.44222 52.457 5.51005L50.3729 7.0457C49.2846 6.91612 48.7116 6.97773 47.7404 7.37477Z" fill="#FAEFEF"/>
<path fill-rule="evenodd" clip-rule="evenodd" d="M39.6234 28.8739L38.9653 31.7258C39.4844 31.9741 40.0966 33.3275 40.83 35.6746L39.6234 28.8739ZM23.3714 51.4288C22.7283 51.9761 22.0736 52.5332 21.4116 53.1152C25.0028 53.1529 28.822 52.0216 32.713 47.521C35.3182 49.9211 36.6112 50.6622 38.5266 50.5923H43.1335C39.383 48.6628 37.4098 47.4006 34.4681 44.34C36.7715 37.8684 35.7843 35.1261 33.7002 34.1389C32.4963 34.263 32.2627 34.5952 32.713 35.6746C32.6066 37.9777 32.5417 38.6756 32.4568 39.5876C32.4343 39.8292 32.4104 40.0858 32.384 40.3912C30.2758 45.5531 27.0092 48.333 23.3714 51.4288Z" fill="#FAEFEF"/>
<path d="M54.1024 43.2431L51.3602 49.7148C50.6848 50.242 49.9901 47.4934 48.7277 42.3656L51.3602 40.3912C54.6074 39.6766 56.1205 39.1637 55.9671 37.2102L58.3803 34.3583C57.2342 33.4352 56.7048 32.7617 55.9671 31.287C52.9038 29.1521 51.7383 27.9163 49.9342 25.6929L49.3858 25.9122V26.4607C48.5216 26.4243 48.4541 26.7345 48.3986 27.3382L49.6052 30.7386C49.5058 32.3377 49.3621 33.0978 48.947 34.2486L47.0823 37.9781L43.9013 26.7898L43.0238 21.3053H48.3986C49.2644 21.9691 49.5656 22.5047 49.9342 23.6088C51.6114 22.8302 52.6257 22.4575 54.7606 22.0731L57.3931 16.808L55.7478 15.4918H53.9927C52.8057 14.7863 52.0966 14.1046 50.8118 12.7495C50.1197 12.4769 49.7155 12.4766 48.947 12.7495C48.5568 14.339 48.071 15.1725 46.8629 16.5887C44.9494 16.5702 43.9429 16.6376 42.4754 17.1371L42.6948 15.4918C41.721 13.8542 41.5676 13.0982 41.5979 11.872C41.6501 11.0707 41.6696 10.6189 42.0366 9.89762C42.6055 5.20236 40.603 3.57016 33.9196 2C34.5434 3.97107 35.0734 5.12005 36.8812 7.37477C37.8056 11.5383 38.102 13.869 38.1975 18.0146C31.6807 20.5073 28.8194 21.1609 25.1445 20.9762L19.0019 17.3565L20.7569 21.7441C19.0288 26.2188 18.0828 29.1235 16.3693 34.9068C16.3318 37.2257 16.138 38.4479 15.2725 40.3912V43.9013L13.8465 47.0823C13.4666 45.7766 13.1708 45.261 12.5302 44.6691C12.9668 43.1605 13.1472 42.335 12.5302 41.159L11.3236 39.8428C10.6053 39.6163 10.2238 39.6307 9.56861 39.8428L6.49731 42.1463C6.24762 43.193 6.2339 43.7485 6.49731 44.6691L7.70389 47.0823C8.08708 49.1012 9.06161 49.357 10.8849 49.7148C11.8786 51.055 12.191 51.7982 12.5302 53.1152L11.3236 55.4186C12.6105 56.8748 12.9247 57.6915 13.1884 59.1481C15.1407 59.174 15.8325 58.0465 16.0402 53.1152C17.354 51.2349 17.7529 49.8529 17.6856 46.6435C18.3004 44.1151 18.3522 42.6042 18.234 39.8428C18.2301 36.3373 18.3865 34.3982 18.7824 30.958C19.4413 27.6851 19.6709 24.9794 20.7569 21.7441C21.773 24.6771 22.3025 27.2165 22.7313 30.1901C21.5217 44.4677 19.4277 51.3671 13.5174 62C16.949 58.9118 19.5102 56.2413 21.3925 53.1467C21.3989 53.1362 21.4053 53.1257 21.4116 53.1152C23.8194 49.1433 25.112 44.4697 25.6929 37.3199C26.8969 40.0114 27.6132 40.8445 30.2998 42.1463C29.6955 40.3922 30.0588 39.5802 30.2998 37.3199C30.4217 34.9184 29.688 34.2686 27.4479 33.9196L25.6929 36.4424L26.6801 31.1773C28.5371 32.0847 29.4998 32.6008 30.5192 33.5905C33.3093 33.2409 35.2016 32.8004 38.9653 31.7258L39.6234 28.8739C38.7707 28.5178 38.3784 28.2537 37.9781 27.5576H35.0165L34.1389 29.3126C32.1127 29.5977 31.1056 29.8874 29.4223 30.5192L27 29.5C27.6279 27.5111 27.4857 27.0153 27.4479 24.8154C32.0207 23.9631 34.5061 23.4211 38.7459 22.2925L39.6234 28.8739L40.83 35.6746C40.0966 33.3275 39.4844 31.9741 38.9653 31.7258C38.3438 31.8932 38.3438 32.3216 38.0878 32.8227H37.1006C36.9482 33.3646 36.8543 33.6574 36.6618 34.1389L38.0878 35.6746C37.471 37.5518 37.0032 38.5394 35.894 40.1718C38.4168 40.6106 39.6234 40.3912 41.5978 38.7459C42.1614 40.0322 42.3769 40.992 42.4754 42.3656L38.0878 45.766L43.1335 44.6691C45.3714 54.0953 47.6307 59.0384 49.2761 59.0384C51.1408 59.0384 53.9503 50.5521 54.1024 43.2431Z" fill="#FAEFEF"/>
<path d="M38.9653 31.7258C35.2016 32.8004 33.3093 33.2409 30.5192 33.5905C29.4998 32.6008 28.5371 32.0847 26.6801 31.1773L25.6929 36.4424L27.4479 33.9196C29.688 34.2686 30.4217 34.9184 30.2998 37.3199C30.0588 39.5802 29.6955 40.3922 30.2998 42.1463C27.6132 40.8445 26.8969 40.0114 25.6929 37.3199M38.9653 31.7258L39.6234 28.8739M38.9653 31.7258C39.4844 31.9741 40.0966 33.3275 40.83 35.6746L39.6234 28.8739M38.9653 31.7258C38.3438 31.8932 38.3438 32.3216 38.0878 32.8227H37.1006C36.9482 33.3646 36.8543 33.6574 36.6618 34.1389L38.0878 35.6746C37.471 37.5518 37.0032 38.5394 35.894 40.1718C38.4168 40.6106 39.6234 40.3912 41.5978 38.7459C42.1614 40.0322 42.3769 40.992 42.4754 42.3656L38.0878 45.766L43.1335 44.6691C45.3714 54.0953 47.6307 59.0384 49.2761 59.0384C51.1408 59.0384 53.9503 50.5521 54.1024 43.2431L51.3602 49.7148C50.6848 50.242 49.9901 47.4934 48.7277 42.3656L51.3602 40.3912C54.6074 39.6766 56.1205 39.1637 55.9671 37.2102L58.3803 34.3583C57.2342 33.4352 56.7048 32.7617 55.9671 31.287C52.9038 29.1521 51.7383 27.9163 49.9342 25.6929L49.3858 25.9122V26.4607C48.5216 26.4243 48.4541 26.7345 48.3986 27.3382L49.6052 30.7386C49.5058 32.3377 49.3621 33.0978 48.947 34.2486L47.0823 37.9781L43.9013 26.7898L43.0238 21.3053H48.3986C49.2644 21.9691 49.5656 22.5047 49.9342 23.6088C51.6114 22.8302 52.6257 22.4575 54.7606 22.0731L57.3931 16.808L55.7478 15.4918H53.9927C52.8057 14.7863 52.0966 14.1046 50.8118 12.7495C50.1197 12.4769 49.7155 12.4766 48.947 12.7495C48.5568 14.339 48.071 15.1725 46.8629 16.5887C44.9494 16.5702 43.9429 16.6376 42.4754 17.1371L42.6948 15.4918C41.721 13.8542 41.5676 13.0982 41.5979 11.872C41.6501 11.0707 41.6696 10.6189 42.0366 9.89762C42.6055 5.20236 40.603 3.57016 33.9196 2C34.5434 3.97107 35.0734 5.12005 36.8812 7.37477C37.8056 11.5383 38.102 13.869 38.1975 18.0146C31.6807 20.5073 28.8194 21.1609 25.1445 20.9762L19.0019 17.3565L20.7569 21.7441M39.6234 28.8739L38.7459 22.2925C34.5061 23.4211 32.0207 23.9631 27.4479 24.8154C27.4857 27.0153 27.6279 27.5111 27 29.5L29.4223 30.5192C31.1056 29.8874 32.1127 29.5977 34.1389 29.3126L35.0165 27.5576H37.9781C38.3784 28.2537 38.7707 28.5178 39.6234 28.8739ZM21.4116 53.1152C25.0028 53.1529 28.822 52.0216 32.713 47.521C35.3182 49.9211 36.6112 50.6622 38.5266 50.5923H43.1335C39.383 48.6628 37.4098 47.4006 34.4681 44.34C36.7715 37.8684 35.7843 35.1261 33.7002 34.1389C32.4963 34.263 32.2627 34.5952 32.713 35.6746C32.6066 37.9777 32.5417 38.6756 32.4568 39.5876C32.4343 39.8292 32.4104 40.0858 32.384 40.3912C30.2758 45.5531 27.0092 48.333 23.3714 51.4288C22.7283 51.9761 22.0736 52.5332 21.4116 53.1152ZM21.4116 53.1152C21.4053 53.1257 21.3989 53.1362 21.3925 53.1467M21.4116 53.1152C23.8194 49.1433 25.112 44.4697 25.6929 37.3199M20.7569 21.7441C19.0288 26.2188 18.0828 29.1235 16.3693 34.9068C16.3318 37.2257 16.138 38.4479 15.2725 40.3912V43.9013L13.8465 47.0823C13.4666 45.7766 13.1708 45.261 12.5302 44.6691C12.9668 43.1605 13.1472 42.335 12.5302 41.159L11.3236 39.8428C10.6053 39.6163 10.2238 39.6307 9.56861 39.8428L6.49731 42.1463C6.24762 43.193 6.2339 43.7485 6.49731 44.6691L7.70389 47.0823C8.08708 49.1012 9.06161 49.357 10.8849 49.7148C11.8786 51.055 12.191 51.7982 12.5302 53.1152L11.3236 55.4186C12.6105 56.8748 12.9247 57.6915 13.1884 59.1481C15.1407 59.174 15.8325 58.0465 16.0402 53.1152C17.354 51.2349 17.7529 49.8529 17.6856 46.6435C18.3004 44.1151 18.3522 42.6042 18.234 39.8428C18.2301 36.3373 18.3865 34.3982 18.7824 30.958C19.4413 27.6851 19.6709 24.9794 20.7569 21.7441ZM20.7569 21.7441C21.773 24.6771 22.3025 27.2165 22.7313 30.1901C21.5217 44.4677 19.4277 51.3671 13.5174 62C16.949 58.9118 19.5102 56.2413 21.3925 53.1467M25.6929 37.3199C25.1104 44.4887 23.8126 49.1681 21.3925 53.1467M6.93601 25.4735C8.90886 25.4906 9.87537 25.3266 11.4333 24.8154C12.7198 25.8815 13.4977 26.4241 15.1627 27.1188L16.0402 29.9707C15.4407 30.0577 15.104 30.0745 14.5046 29.9707C12.4826 33.0214 11.4333 34.0292 7.70384 32.9324C6.24281 32.5026 5.61974 31.6161 5.51005 28.6545C5.51005 27.5576 5.94881 26.2413 6.93601 25.4735ZM14.0658 22.0731H12.2011C8.91042 25.3978 6.93601 25.1444 4.74223 21.5247C3.31627 20.9762 2.21938 20.5375 2 19.1115C3.18128 17.3776 3.72307 16.4458 4.52285 14.8336C6.93601 12.2011 9.1298 12.0914 10.0073 14.3949C12.0277 17.5416 13.2059 19.3213 14.0658 22.0731ZM45.1079 6.27788C46.1025 6.53836 46.6797 6.78925 47.7404 7.37477C48.7116 6.97773 49.2846 6.91612 50.3729 7.0457L52.457 5.51005C54.7456 6.44222 55.8117 7.512 57.6124 9.67825L55.4186 14.6143C53.5019 14.0174 52.582 13.4289 51.2505 11.872C49.728 10.8577 48.9234 10.2149 47.7404 8.69104C46.2241 7.53932 45.6844 7.02784 45.1079 6.27788Z" stroke="#EDDDDD" stroke-width="1.3"/>
</g>
</g>
<defs>
<filter id="filter0_d_73_2" x="0.318604" y="0.605637" width="59.988" height="63.3775" filterUnits="userSpaceOnUse" color-interpolation-filters="sRGB">
<feFlood flood-opacity="0" result="BackgroundImageFix"/>
<feColorMatrix in="SourceAlpha" type="matrix" values="0 0 0 0 0 0 0 0 0 0 0 0 0 0 0 0 0 0 127 0" result="hardAlpha"/>
<feOffset dy="0.5"/>
<feGaussianBlur stdDeviation="0.5"/>
<feComposite in2="hardAlpha" operator="out"/>
<feColorMatrix type="matrix" values="0 0 0 0 0.968627 0 0 0 0 0.92549 0 0 0 0 0.92549 0 0 0 0.32 0"/>
<feBlend mode="normal" in2="BackgroundImageFix" result="effect1_dropShadow_73_2"/>
<feBlend mode="normal" in="SourceGraphic" in2="effect1_dropShadow_73_2" result="shape"/>
</filter>
</defs>
</svg>
