<svg width="232" height="245" viewBox="0 0 232 245" fill="none" xmlns="http://www.w3.org/2000/svg">
<g class="loading-svg">
<g id="Vector 2" filter="url(#filter0_d_75_26)">
<path d="M43.3074 93.8132C37.3112 95.7809 33.5912 96.412 25.998 96.3462C22.1984 99.3015 20.5097 104.368 20.5097 108.589C20.9319 119.988 23.33 123.4 28.9533 125.054C43.3074 129.276 47.346 125.397 55.1284 113.656C57.4355 114.055 58.7314 113.99 61.0389 113.656L57.6614 102.679C51.2529 100.005 48.259 97.9167 43.3074 93.8132Z" fill="#FCFCFC"/>
<path d="M46.2626 83.2587H53.4396C50.1299 72.6673 45.5951 65.8176 37.819 53.7062C34.4416 44.8404 25.998 45.2626 16.7101 55.3949C13.6319 61.6 11.5466 65.1862 7 71.8599C7.84436 77.3482 12.0661 79.0369 17.5545 81.1478C25.998 95.0797 33.5973 96.0548 46.2626 83.2587Z" fill="#FCFCFC"/>
<path d="M183.048 26.6868C178.966 24.4332 176.744 23.4675 172.916 22.465C175.135 25.3514 177.212 27.3201 183.048 31.7529C187.602 37.618 190.699 40.0922 196.558 43.9961C201.683 49.9883 205.224 52.2531 212.601 54.5505L221.045 35.5525C214.114 27.2149 210.01 23.0975 201.202 19.5097L193.181 25.4202C188.992 24.9215 186.787 25.1586 183.048 26.6868Z" fill="#FCFCFC"/>
<path fill-rule="evenodd" clip-rule="evenodd" d="M151.807 109.434L149.274 120.41C151.272 121.366 153.628 126.575 156.451 135.609L151.807 109.434ZM89.2555 196.245C86.7803 198.351 84.2605 200.495 81.7127 202.735C95.5345 202.881 110.234 198.526 125.21 181.204C135.237 190.442 140.214 193.294 147.586 193.025H165.317C150.882 185.599 143.287 180.74 131.965 168.961C140.831 144.052 137.031 133.498 129.01 129.698C124.376 130.176 123.477 131.454 125.21 135.609C124.801 144.473 124.551 147.159 124.224 150.67C124.137 151.599 124.045 152.587 123.944 153.763C115.83 173.63 103.257 184.329 89.2555 196.245Z" fill="#FCFCFC"/>
<path d="M207.535 164.739L196.981 189.648C194.381 191.677 191.707 181.098 186.848 161.362L196.981 153.763C209.479 151.012 215.303 149.038 214.712 141.519L224 130.543C219.589 126.99 217.551 124.397 214.712 118.722C202.922 110.505 198.436 105.748 191.492 97.1906L189.381 98.0349V100.146C186.055 100.006 185.795 101.2 185.582 103.523L190.226 116.611C189.843 122.766 189.29 125.691 187.693 130.121L180.516 144.475L168.272 101.412L164.895 80.3034H185.582C188.914 82.8583 190.073 84.9198 191.492 89.1692C197.947 86.1726 201.851 84.7379 210.068 83.2587L220.2 62.9941L213.868 57.928H207.113C202.544 55.2127 199.815 52.589 194.87 47.3735C192.206 46.324 190.65 46.3231 187.693 47.3735C186.191 53.4911 184.321 56.6991 179.671 62.1498C172.306 62.0785 168.432 62.3382 162.784 64.2606L163.628 57.928C159.881 51.6254 159.29 48.7156 159.407 43.9961C159.608 40.9118 159.683 39.1731 161.095 36.3969C163.285 18.3254 155.578 12.0433 129.854 6C132.255 13.5864 134.295 18.0087 141.253 26.6868C144.811 42.7114 145.952 51.6822 146.319 67.6381C121.237 77.2321 110.224 79.7476 96.0799 79.0369L72.4379 65.105L79.1928 81.9922C72.5417 99.2149 68.9005 110.395 62.3056 132.654C62.1612 141.579 61.4151 146.283 58.0838 153.763V167.272L52.5955 179.515C51.1335 174.49 49.995 172.506 47.5294 170.227C49.2099 164.421 49.9041 161.244 47.5294 156.718L42.8854 151.652C40.1207 150.78 38.6521 150.835 36.1305 151.652L24.3095 160.517C23.3485 164.546 23.2957 166.684 24.3095 170.227L28.9535 179.515C30.4283 187.286 34.1792 188.271 41.1967 189.648C45.0213 194.806 46.2239 197.667 47.5294 202.735L42.8854 211.601C47.8382 217.205 49.0476 220.349 50.0624 225.955C57.5766 226.055 60.2395 221.715 61.0389 202.735C66.0955 195.498 67.6308 190.179 67.3715 177.827C69.738 168.095 69.9375 162.28 69.4824 151.652C69.4674 138.159 70.0693 130.696 71.5933 117.455C74.1291 104.858 75.013 94.4444 79.1928 81.9922C83.1036 93.2808 85.1414 103.055 86.792 114.5C82.1363 169.452 74.0767 196.007 51.329 236.932C64.5364 225.046 74.3942 214.767 81.6389 202.857C81.6635 202.816 81.6881 202.776 81.7127 202.735C90.98 187.448 95.9548 169.46 98.1906 141.942C102.825 152.3 105.582 155.507 115.922 160.517C113.596 153.766 114.994 150.641 115.922 141.942C116.391 132.699 113.567 130.198 104.945 128.854L98.1906 138.564L101.99 118.3C109.138 121.792 112.843 123.778 116.767 127.587C127.505 126.242 134.788 124.547 149.274 120.41L151.807 109.434C148.526 108.063 147.016 107.047 145.475 104.368H134.076L130.698 111.122C122.899 112.22 119.023 113.335 112.545 115.766L103.222 111.844C105.638 104.189 105.091 102.28 104.945 93.8132C122.545 90.5329 132.111 88.4467 148.43 84.103L151.807 109.434L156.451 135.609C153.628 126.575 151.272 121.366 149.274 120.41C146.882 121.055 146.882 122.704 145.897 124.632H142.097C141.511 126.718 141.149 127.845 140.409 129.698L145.897 135.609C143.523 142.834 141.723 146.635 137.453 152.918C147.163 154.607 151.807 153.763 159.406 147.43C161.576 152.381 162.405 156.075 162.784 161.362L145.897 174.449L165.317 170.227C173.931 206.507 182.626 225.533 188.959 225.533C196.136 225.533 206.95 192.87 207.535 164.739Z" fill="#FCFCFC"/>
<path class="stroke-svg" d="M149.274 120.41C134.788 124.547 127.505 126.242 116.767 127.587C112.843 123.778 109.138 121.792 101.99 118.3L98.1906 138.564L104.945 128.854C113.567 130.198 116.391 132.699 115.922 141.942C114.994 150.641 113.596 153.766 115.922 160.517C105.582 155.507 102.825 152.3 98.1906 141.942M149.274 120.41L151.807 109.434M149.274 120.41C151.272 121.366 153.628 126.575 156.451 135.609L151.807 109.434M149.274 120.41C146.882 121.055 146.882 122.704 145.897 124.632H142.097C141.511 126.718 141.149 127.845 140.409 129.698L145.897 135.609C143.523 142.834 141.723 146.635 137.453 152.918C147.163 154.607 151.807 153.763 159.406 147.43C161.576 152.381 162.405 156.075 162.784 161.362L145.897 174.449L165.317 170.227C173.931 206.507 182.626 225.533 188.959 225.533C196.136 225.533 206.95 192.87 207.535 164.739L196.981 189.648C194.381 191.677 191.707 181.098 186.848 161.362L196.981 153.763C209.479 151.012 215.303 149.038 214.712 141.519L224 130.543C219.589 126.99 217.551 124.397 214.712 118.722C202.922 110.505 198.436 105.748 191.492 97.1906L189.381 98.0349V100.146C186.055 100.006 185.795 101.2 185.582 103.523L190.226 116.611C189.843 122.766 189.29 125.691 187.693 130.121L180.516 144.475L168.272 101.412L164.895 80.3034H185.582C188.914 82.8583 190.073 84.9198 191.492 89.1692C197.947 86.1726 201.851 84.7379 210.068 83.2587L220.2 62.9941L213.868 57.928H207.113C202.544 55.2127 199.815 52.589 194.87 47.3735C192.206 46.324 190.65 46.3231 187.693 47.3735C186.191 53.4911 184.321 56.6991 179.671 62.1498C172.306 62.0785 168.432 62.3382 162.784 64.2606L163.628 57.928C159.881 51.6254 159.29 48.7156 159.407 43.9961C159.608 40.9118 159.683 39.1731 161.095 36.3969C163.285 18.3254 155.578 12.0433 129.854 6C132.255 13.5864 134.295 18.0087 141.253 26.6868C144.811 42.7114 145.952 51.6822 146.319 67.6381C121.237 77.2321 110.224 79.7476 96.0799 79.0369L72.4379 65.105L79.1928 81.9922M151.807 109.434L148.43 84.103C132.111 88.4467 122.545 90.5329 104.945 93.8132C105.091 102.28 105.638 104.189 103.222 111.844L112.545 115.766C119.023 113.335 122.899 112.22 130.698 111.122L134.076 104.368H145.475C147.016 107.047 148.526 108.063 151.807 109.434ZM81.7127 202.735C95.5345 202.881 110.234 198.526 125.21 181.204C135.237 190.442 140.214 193.294 147.586 193.025H165.317C150.882 185.599 143.287 180.74 131.965 168.961C140.831 144.052 137.031 133.498 129.01 129.698C124.376 130.176 123.477 131.454 125.21 135.609C124.801 144.473 124.551 147.159 124.224 150.67C124.137 151.599 124.045 152.587 123.944 153.763C115.83 173.63 103.257 184.329 89.2555 196.245C86.7803 198.351 84.2605 200.495 81.7127 202.735ZM81.7127 202.735C81.6881 202.776 81.6635 202.816 81.6389 202.857M81.7127 202.735C90.98 187.448 95.9548 169.46 98.1906 141.942M79.1928 81.9922C72.5417 99.2149 68.9005 110.395 62.3056 132.654C62.1612 141.579 61.4151 146.283 58.0838 153.763V167.272L52.5955 179.515C51.1335 174.49 49.995 172.506 47.5294 170.227C49.2099 164.421 49.9041 161.244 47.5294 156.718L42.8854 151.652C40.1207 150.78 38.6521 150.835 36.1305 151.652L24.3095 160.517C23.3485 164.546 23.2957 166.684 24.3095 170.227L28.9535 179.515C30.4283 187.286 34.1792 188.271 41.1967 189.648C45.0213 194.806 46.2239 197.667 47.5294 202.735L42.8854 211.601C47.8382 217.205 49.0476 220.349 50.0624 225.955C57.5766 226.055 60.2395 221.715 61.0389 202.735C66.0955 195.498 67.6308 190.179 67.3715 177.827C69.738 168.095 69.9375 162.28 69.4824 151.652C69.4674 138.159 70.0693 130.696 71.5933 117.455C74.1291 104.858 75.013 94.4444 79.1928 81.9922ZM79.1928 81.9922C83.1036 93.2808 85.1414 103.055 86.792 114.5C82.1363 169.452 74.0767 196.007 51.329 236.932C64.5364 225.046 74.3942 214.767 81.6389 202.857M98.1906 141.942C95.9489 169.533 90.9536 187.543 81.6389 202.857M25.998 96.3462C33.5912 96.412 37.3112 95.7809 43.3074 93.8132C48.259 97.9167 51.2529 100.005 57.6614 102.679L61.0389 113.656C58.7314 113.99 57.4355 114.055 55.1284 113.656C47.346 125.397 43.3074 129.276 28.9533 125.054C23.33 123.4 20.9319 119.988 20.5097 108.589C20.5097 104.368 22.1984 99.3015 25.998 96.3462ZM53.4396 83.2587H46.2626C33.5973 96.0548 25.998 95.0797 17.5545 81.1478C12.0661 79.0369 7.84436 77.3482 7 71.8599C11.5466 65.1862 13.6319 61.6 16.7101 55.3949C25.998 45.2626 34.4416 44.8404 37.819 53.7062C45.5951 65.8176 50.1299 72.6673 53.4396 83.2587ZM172.916 22.465C176.744 23.4675 178.966 24.4332 183.048 26.6868C186.787 25.1586 188.992 24.9215 193.181 25.4202L201.202 19.5097C210.01 23.0975 214.114 27.2149 221.045 35.5525L212.601 54.5505C205.224 52.2531 201.683 49.9883 196.558 43.9961C190.699 40.0922 187.602 37.618 183.048 31.7529C177.212 27.3201 175.135 25.3514 172.916 22.465Z" stroke="#FCFCFC" stroke-width="5.00352"/>
</g>
</g>
<defs>
<filter id="filter0_d_75_26" x="0.52858" y="0.633308" width="230.886" height="243.931" filterUnits="userSpaceOnUse" color-interpolation-filters="sRGB">
<feFlood flood-opacity="0" result="BackgroundImageFix"/>
<feColorMatrix in="SourceAlpha" type="matrix" values="0 0 0 0 0 0 0 0 0 0 0 0 0 0 0 0 0 0 127 0" result="hardAlpha"/>
<feOffset dy="1.92443"/>
<feGaussianBlur stdDeviation="1.92443"/>
<feComposite in2="hardAlpha" operator="out"/>
<feColorMatrix type="matrix" values="0 0 0 0 0.968627 0 0 0 0 0.92549 0 0 0 0 0.92549 0 0 0 0.32 0"/>
<feBlend mode="normal" in2="BackgroundImageFix" result="effect1_dropShadow_75_26"/>
<feBlend mode="normal" in="SourceGraphic" in2="effect1_dropShadow_75_26" result="shape"/>
</filter>
</defs>
</svg>
